<svg version="1.1" id="Layer_1" xmlns="http://www.w3.org/2000/svg" xmlns:xlink="http://www.w3.org/1999/xlink" x="0px" y="0px"
	 width="100%" viewBox="0 0 320 272" enable-background="new 0 0 320 272" xml:space="preserve">
<path fill="#000000" opacity="1.000000" stroke="none" 
	d="
M55.137817,154.925018 
	C43.278103,149.066025 31.262062,144.663025 18.911106,141.129883 
	C9.581887,138.461166 5.763443,134.412415 5.646273,127.210060 
	C5.491704,117.708961 13.032073,111.361473 22.549034,113.256310 
	C43.354790,117.398758 62.543362,125.743469 80.727722,136.432587 
	C113.857704,155.907043 140.208908,182.251389 159.853317,215.294373 
	C160.432327,216.268280 161.172256,217.146530 161.736984,217.930344 
	C163.572845,218.111160 163.917068,216.776138 164.467728,215.845261 
	C190.872726,171.208542 228.381622,139.649826 276.551117,120.649292 
	C285.091553,117.280487 293.960846,114.994453 302.919098,113.090500 
	C309.960297,111.593987 316.895935,115.788071 319.027679,122.568069 
	C321.196320,129.465454 318.160583,136.638275 311.226990,139.444458 
	C305.697174,141.682510 299.803040,143.002213 294.134949,144.919678 
	C247.570923,160.671844 212.678131,190.521912 188.293106,232.923141 
	C183.144760,241.875183 178.792145,251.241043 175.214401,260.962067 
	C172.710556,267.765228 167.966049,271.277832 161.944458,271.252014 
	C156.141327,271.227142 151.784851,267.887115 149.252228,261.091125 
	C131.594925,213.709869 100.017731,178.668747 55.137817,154.925018 
z"/>
<path fill="#000000" opacity="1.000000" stroke="none" 
	d="
M173.805145,99.856880 
	C188.971115,106.903114 195.598480,118.059479 194.288513,133.835175 
	C193.186325,147.108566 183.850952,157.923843 170.473160,161.425903 
	C157.821625,164.737823 144.211472,159.731979 136.562836,148.953613 
	C128.767151,137.968033 128.662704,122.515953 136.309097,111.408134 
	C143.758438,100.586540 157.377060,95.457344 170.097824,98.699707 
	C171.223740,98.986687 172.321289,99.385056 173.805145,99.856880 
z"/>
<path fill="#000000" opacity="1.000000" stroke="none" 
	d="
M153.862885,12.912954 
	C160.752426,5.453937 167.548279,5.981441 172.565613,14.511691 
	C180.676102,28.300804 182.195496,42.920792 177.026657,58.144188 
	C176.866974,58.614555 176.649796,59.069611 176.419937,59.511257 
	C174.896805,62.437683 173.632050,66.533348 169.827072,66.054291 
	C166.296219,65.609749 166.192352,61.464916 165.585297,58.426445 
	C164.745468,54.222847 163.951920,50.010006 162.238724,45.631401 
	C161.294464,49.798985 160.417923,53.983459 159.383682,58.128593 
	C158.611084,61.225117 158.892075,65.880325 155.140732,66.258842 
	C151.257965,66.650620 149.692825,62.285355 148.553406,59.064537 
	C142.872498,43.006100 144.820312,27.706387 153.862885,12.912954 
z"/>
<path fill="#000000" opacity="1.000000" stroke="none" 
	d="
M188.711884,53.126129 
	C193.766418,38.451187 203.002670,28.398098 217.877686,24.507084 
	C225.821457,22.429150 231.347504,27.076199 230.395386,35.154285 
	C228.799973,48.690147 219.882416,57.308220 209.049469,64.209824 
	C204.973267,66.806763 200.239426,67.941635 194.834488,69.089470 
	C194.570267,63.529140 199.173096,60.114391 200.057800,55.030540 
	C195.528015,56.872066 192.693298,60.759018 188.443771,63.344604 
	C186.954086,59.792213 187.908829,56.661423 188.711884,53.126129 
z"/>
<path fill="#000000" opacity="1.000000" stroke="none" 
	d="
M137.030502,54.309391 
	C137.081055,57.250290 138.988525,59.727070 137.208435,62.963203 
	C132.645126,59.835323 128.895386,55.819183 123.716103,53.031612 
	C125.873276,58.471924 129.571503,62.667076 131.149216,68.088074 
	C128.211502,69.472946 125.927559,68.020798 123.782997,67.178024 
	C109.719933,61.651466 99.323402,52.386417 95.554543,37.289406 
	C93.138374,27.610903 99.367760,21.583176 108.791786,24.648209 
	C123.188049,29.330389 132.625381,39.280128 137.030502,54.309391 
z"/>
<path fill="#000000" opacity="1.000000" stroke="none" 
	d="
M116.262405,74.514771 
	C119.072929,76.251205 121.914680,77.390472 123.525757,80.491127 
	C118.819160,83.184731 113.703568,81.746727 108.338959,82.732452 
	C113.375107,85.197227 118.454361,86.137520 123.252808,89.295792 
	C117.639153,93.519508 111.741379,94.526024 105.836647,94.783127 
	C98.968361,95.082176 92.258591,93.819725 86.091614,90.461044 
	C83.016907,88.786484 80.594330,86.692467 80.563042,82.823471 
	C80.530716,78.825005 82.721916,76.261070 86.065430,74.605225 
	C95.956345,69.706848 105.931557,70.065681 116.262405,74.514771 
z"/>
<path fill="#000000" opacity="1.000000" stroke="none" 
	d="
M202.484467,80.301025 
	C211.770020,70.041328 229.756042,68.042809 240.527451,75.707054 
	C245.287781,79.094200 245.997604,84.186501 242.250534,88.068489 
	C234.646286,95.946495 212.080399,96.837143 203.305450,89.424858 
	C206.178040,85.904419 211.063599,86.169693 214.792465,83.482903 
	C210.668686,81.419510 206.129410,82.927322 202.484467,80.301025 
z"/>
</svg>